# xmcd
#
# Track frame offsets:
#	150
#	5130
#	17613
#	32112
#	41491
#	51147
#	61869
#	75967
#	87084
#	99667
#	112621
#	127152
#	143952
#	148482
#	160296
#	175392
#
# Disc length: 2533 seconds
#
# Revision: 1
# Processed by: cddbd v1.5.2PL0 Copyright (c) Steve Scherf et al.
# Submitted via: audiograbber 1.83.01
#
DISCID=d309e310
DTITLE=Verschiedene - Die schönsten Lieder der Heimat CD 2
DYEAR=1900
DGENRE=Folklore
TTITLE0=Rheydter Kinder- und Jugenchor - Schön ist die Welt
TTITLE1=Chris und Christian  - Hohe Tannen 
TTITLE2=Fred Rauch - Schützenliesel 
TTITLE3=Pfälzer Weinkehlchen  - Es klappert die Mühle am rauschenden Bach 
TTITLE4=Pfälzer Landmusikanten  - Kuckucks - Walzer
TTITLE5=Die Ginsberger Heidekinder - Der Mond ist aufgegangen 
TTITLE6=Fischer Chöre  - Nun danket alle Gott
TTITLE7=Die Ginsberger Heisemusikanten - Lore, Lore, Lore 
TTITLE8=Chris und Christian  - Ein Haus in den Bergen 
TTITLE9=Seemannschor der Marine - Kaperfahrt 
TTITLE10=Robert Jung - Aus Böhmen kommt die Musik
TTITLE11=Hamburger Seemannschor - Veermaster 
TTITLE12=Die Ginsberger Heidekinder - Bruder Jakob
TTITLE13=Pfälzer Weinkehlchen  - Wie hat Gott die Welt so schön bedacht
TTITLE14=Ginsberger Heidesänger - Märkische heide
TTITLE15=Freddy Breck - Rosamunde 
EXTD=
EXTT0=
EXTT1=
EXTT2=
EXTT3=
EXTT4=
EXTT5=
EXTT6=
EXTT7=
EXTT8=
EXTT9=
EXTT10=
EXTT11=
EXTT12=
EXTT13=
EXTT14=
EXTT15=
PLAYORDER=
